<?xml version="1.0" encoding="UTF-8"?>
<svg id="Layer_1" data-name="Layer 1" xmlns="http://www.w3.org/2000/svg" version="1.1" viewBox="0 0 722.9 340.1">
  <defs>
    <style>
      .cls-1 {
        fill: #ffffff;
        stroke-width: 0px;
      }
    </style>
  </defs>
  <g>
    <path class="cls-1" d="M722.9,205.5c-1.4.4-2.9.5-4.4.5-24.8,0-49.7,0-74.5,0-.8,0-1.6.3-2.7-.8,4.1-5.7,8.1-11.5,12.3-17.2,1.2-1.6,3.1-1,4.7-.9,11.5.6,23,0,34.5.3,2.9,0,3.4-1.2,3-3.6-1.5-9.5-6.4-16.3-15.7-19.5-6.3-2.2-12.7-2.5-19.2-1.4-10.1,1.8-16.6,8.1-19.8,17.7-3.7,11.4-3.6,23,.2,34.3,6.8,20,33.4,26.7,47.7,12.2.9-.9,2.1-1.9,2.5-3.1,1.3-3.5,3.2-3.7,6.4-2.5,7.2,2.6,14.5,4.7,22.2,7.1-12.1,16.3-27.9,24.7-47.7,25.8-7,.4-13.9,0-20.8-1.7-20.8-5-32.3-18.7-36.5-39.1-2.7-13.4-1.2-26.6,3.3-39.3,8.1-23.3,29.8-36,54.8-32.5,6.9,1,13.8,2.3,20.2,5.3,18.1,8.3,26.8,23,28.8,42.3.7,1.9.2,3.9.4,5.9.3,2.7-.6,5.5.5,8.2v2Z"/>
    <path class="cls-1" d="M722.9,203.5c-2.3-2.5-.4-5.4-.8-8,.3-.5.5-.4.8,0v8Z"/>
    <path class="cls-1" d="M722.9,195.5c-.3,0-.5,0-.8,0-.3-2-.3-4.1,0-6.1.3.1.6.1.9.1v6Z"/>
    <path class="cls-1" d="M36,143.5c.7,2,.4,3.7.4,5.3,0,17.8,0,35.7,0,53.5,0,3.2.3,6.3,1.4,9.3,3.6,9.6,10.9,14.2,20.9,13.2,9.5-1,15.8-7.2,17.1-17.2.4-3,.5-6,.5-9,0-53.3,0-106.6,0-160,0-3.4.8-5.8,3.4-8.2,10.9-9.8,21.6-19.7,33.1-30.4v6c0,67.7,0,135.3,0,203,0,19-8.8,32.4-26,39.4-21.1,8.5-42.7,8.3-63.5-1.3C8,240-.2,227.7,0,210.2c.2-10,.2-20,0-30,0-3,.9-4.9,3.1-6.8,10.1-9.2,20.1-18.5,30.1-27.7.8-.7,1.7-1.4,2.8-2.2Z"/>
    <path class="cls-1" d="M370.4,168.2c-9.2-19.7-29.4-29.9-51-27-11.4,1.6-21.2,6.5-30.5,14.8v-5.8c0-19-.1-38,0-57,0-4-.9-6.7-4-9.4-8.2-7-16.1-14.5-24.1-21.7-.9-.8-1.7-1.9-3.4-2.2v5.3c0,51.5,0,103,0,154.5,0,8.5,0,17-.4,25.5-.1,3.6,1.1,4.4,4.5,4.3,7-.2,14,0,21,0s5.7,0,6-5.8c0-.2.4-.5.7-.8,3,2.3,5.9,4.8,9.3,6.5,16.7,8.5,33.5,7,50.2.4,11.6-4.6,19.8-13,24-24.7,6.8-19.1,6.3-38.4-2.3-56.8ZM318.6,229.7c-17.5.5-32.2-13.1-33-29.9-.9-17.8,12.8-33.3,31.3-33.7,17.4-.4,31.7,13.5,32.2,31.3.5,17.1-13.4,31.9-30.6,32.4Z"/>
    <path class="cls-1" d="M596.8,228.7c-15.9,20.8-36.6,28-61.2,25.4-8.4-.9-16.3-3.3-23.4-7.9-12.7-8.4-19-20.8-21-35.3-2-14.4-.2-28.6,6.1-41.9,8.4-17.6,22.8-26.5,42-27.4,13.5-.7,26.5,2.1,38.1,9.6,13.6,8.8,19.6,22.1,21.4,37.7.5,4.4.3,8.9.3,13.4,0,3.1-1.2,3.9-4.1,3.8-13.5-.1-27,0-40.5,0-12,0-24,0-37.1,0,4.6-6.5,8.8-12.4,13-18.2.9-1.3,2.5-.9,3.7-.8,11.5.7,23,0,34.5.4,3.1,0,4.1-.8,3.6-4-1.3-8.3-5.3-14.5-13.1-18.1-19.3-8.9-38.7.3-42.9,20.5-.5,2.6-.9,5.3-1,7.9-.3,8,.4,16,3.5,23.5,7.2,16.9,29.3,23.1,44.2,12.4,2.2-1.6,4.3-3.3,5.4-5.8,1.4-3.2,3.3-3.2,6.2-2.2,7.2,2.5,14.5,4.7,22.3,7.1Z"/>
    <path class="cls-1" d="M237.3,143.1c1.1,1.8.7,3.1.7,4.4,0,32.5,0,65,0,97.5,0,5.2.6,4.6-4.4,4.7-7.8,0-15.7-.2-23.5,0-3.2,0-4.1-1-3.8-4,.2-2.7,0-5.5,0-8.3-2.4,0-3.4,1.6-4.7,2.5-11.1,7.7-23.4,11.8-37,11.6-13.9-.2-32.5-9.7-32.7-32.6-.1-14.7,0-29.3.1-44,0-1.8,0-3.4,1.6-4.9,9.5-8.6,18.9-17.3,28.4-26,.2-.2.6-.1,1-.2.7,1.6.3,3.2.3,4.8,0,19.2,0,38.3,0,57.5,0,10.8,5.4,16.9,16.2,18.5,16.5,2.5,27-6.5,27.1-23.4,0-8.7,0-17.3,0-26,0-1.8-.3-3.7,1.5-5,.4-.3.7-.7,1.1-1,9.2-8.6,18.5-17.3,28-26.2Z"/>
    <path class="cls-1" d="M476.7,59.7c0,2.9,0,4.5,0,6.1,0,59.5,0,119,0,178.5,0,.8,0,1.7,0,2.5.3,2.3-.4,3.3-3,3.3-8.7-.1-17.3-.2-26,0-3.3,0-2.9-1.8-2.9-3.8,0-17.3,0-34.7,0-52,0-33.2.2-66.3,0-99.5,0-4,1-6.7,4-9.4,9.1-8,17.9-16.5,27.7-25.6Z"/>
    <path class="cls-1" d="M425.7,142.2c0,35.3,0,69.3,0,103.3,0,3-.6,4.1-3.8,4-8.3-.2-16.7-.2-25,0-2.4,0-3.1-.7-3.1-3.1,0-24.2,0-48.3,0-72.5,0-1.2,0-2.2,1.1-3.2,10-9.2,20-18.5,30.8-28.5Z"/>
  </g>
  <g>
    <path class="cls-1" d="M250.2,285.2l-5,7c-.4-.4-.9-.8-1.7-1.4-.7-.5-2.3-1.3-4.7-2.2-2.4-.9-4.8-1.4-7.3-1.4-6,0-10.9,2-14.7,6.1s-5.8,9.3-5.8,15.6,1.9,11.1,5.8,15.2c3.9,4.1,8.9,6.2,14.9,6.2s9.7-1.5,13.1-4.6c3.4-3,5.5-7,6.4-12h-19.9v-8.2h29.1c.1,1.1.2,2.1.2,3.2,0,8.6-2.7,15.7-8,21.4-5.4,5.7-12.3,8.5-20.9,8.5s-15.4-2.9-21-8.6c-5.6-5.7-8.4-12.8-8.4-21.2s2.8-15.4,8.3-21.3c5.5-5.9,12.6-8.8,21.1-8.8s4.3.2,6.4.6c2.1.4,3.8.9,5.2,1.6,1.4.6,2.6,1.2,3.8,1.9s1.9,1.2,2.5,1.6l.7.6Z"/>
    <path class="cls-1" d="M270.6,337.5v-57.4h27.1v8.4h-18.2v15.2h17v8.4h-17v17h18.2v8.4h-27.1Z"/>
    <path class="cls-1" d="M347.8,280.1v60l-30.6-37.7v35.1h-8.7v-59.9l30.6,37.7v-35.2h8.7Z"/>
    <path class="cls-1" d="M360.6,337.5v-57.4h27.1v8.4h-18.2v15.2h17v8.4h-17v17h18.2v8.4h-27.1Z"/>
    <path class="cls-1" d="M398.5,337.5v-57.4h14.4c6.7,0,12,1.8,16.1,5.4s6.1,8.4,6.1,14.4-1.2,8.1-3.6,11.1c-2.4,3-5.7,5.2-9.8,6.5l17.1,20h-11.2l-20.2-24v24h-8.9ZM407.4,311.1h5.5c4.2,0,7.4-1,9.8-2.9,2.4-1.9,3.6-4.7,3.6-8.3s-1.2-6.4-3.6-8.4c-2.4-2-5.6-3-9.8-3h-5.5v22.6Z"/>
    <path class="cls-1" d="M442,337.5l23.3-59.7,23.4,59.7h-9.1l-3.1-8.1h-22.1l-3,8.1h-9.4ZM465.6,300.6l-7.6,20.4h15.4l-7.8-20.4Z"/>
    <path class="cls-1" d="M496.4,337.5v-57.4h8.9v49h18.2v8.4h-27.1Z"/>
  </g>
</svg>